PathFileType	4	(X/Y/Z)	54_1_23_p0_0-297.trc
DataRate	CameraRate	NumFrames	NumMarkers	Units	OrigDataRate	OrigDataStartFrame	OrigNumFrames
59.0	59.0	7	27	m	59.0	223	298
Frame#	Time	RHip			RKnee			RAnkle			RBigToe			RSmallToe			RHeel			LHip			LKnee			LAnkle			LBigToe			LSmallToe			LHeel			Neck			Head			Nose			RShoulder			RElbow			RWrist			RThumb			RIndex			RPinky			LShoulder			LElbow			LWrist			LThumb			LIndex			LPinky			
		X1	Y1	Z1	X2	Y2	Z2	X3	Y3	Z3	X4	Y4	Z4	X5	Y5	Z5	X6	Y6	Z6	X7	Y7	Z7	X8	Y8	Z8	X9	Y9	Z9	X10	Y10	Z10	X11	Y11	Z11	X12	Y12	Z12	X13	Y13	Z13	X14	Y14	Z14	X15	Y15	Z15	X16	Y16	Z16	X17	Y17	Z17	X18	Y18	Z18	X19	Y19	Z19	X20	Y20	Z20	X21	Y21	Z21	X22	Y22	Z22	X23	Y23	Z23	X24	Y24	Z24	X25	Y25	Z25	X26	Y26	Z26	X27	Y27	Z27	
223	3.7796610169491527	0.27031088375151624	0.4300599147470319	1.0727459531257175	0.2796013584673467	0.5063793826954536	1.5360208577138095	0.24570711742865659	0.5591100190520948	1.958213782485064	0.21114241272994888	0.31336616676224915	1.9152486992458004	0.2826878907244346	0.36021943625439834	1.9429751712242973	0.2354483067966002	0.6390135272241155	2.0274271245678244	0.05911000226037715	0.5021628626479079	1.1089976797869578	0.05487725156628281	0.5390498982970271	1.5576152560974148	0.06485652064286389	0.5442414335128762	1.9548316622709585	0.07395971062841077	0.33616626773987895	1.9213368495831151	0.0313356898747574	0.368272764617901	1.9402425890850232	0.08470277750778551	0.570081519359933	2.003146237797398	0.1762061857206214	0.49089549325896054	0.5671928423774154	0.16424176574749927	0.4408504135812484	0.3256596766330125	0.15991727416916038	0.3938608363676204	0.44705136372736126	0.3388056719195459	0.48599351593601936	0.6477872091342541	0.36199224311877265	0.474161234474824	0.8980463070478159	0.3519873993724327	0.40249975352062256	1.0991427843939954	0.26848572387894853	0.3503500486619784	1.1870083552177375	0.28857876600451987	0.3666793921819016	1.2495201039713826	0.34116735594689884	0.4373735302511361	1.2912358377982924	0.014515399544993353	0.47935769636472014	0.6368355141520782	-0.008668482075201493	0.4701013354481318	0.8876003700249921	-0.007995651328589787	0.4344298302555349	1.1281235034497996	0.05892594475840716	0.37715742133799934	1.2020844788302611	0.03744702350908593	0.4041139099559868	1.2314486975188406	0.005824867182407441	0.44927791039515713	1.2535878641828462
224	3.7966101694915255	0.2696834645502579	0.4302005293099267	1.0767550137439883	0.2798874139001733	0.5052605277578408	1.5397250927255148	0.2416299966451832	0.5469653957600772	1.9503739920110887	0.21478295284057217	0.3236993055020503	1.922807990451404	0.278886843339801	0.37457996572742325	1.9535043987045737	0.2351714721904736	0.6380052304700209	2.026943528924143	0.06341870196753199	0.4882304170332461	1.1038475353617048	0.05580804988907295	0.5385362326358178	1.5530320876864478	0.06484667538253638	0.5442714329849547	1.9547680956613285	0.0740444902638884	0.3359873012271926	1.9213828215432907	0.032376631264296	0.3677215617803847	1.9363964458069522	0.0846904416071289	0.5700123495494379	2.003179606799137	0.17254903831743912	0.5040173214725724	0.5695415156583464	0.16427222951664894	0.44102324533517984	0.3256848288811324	0.1599393826153792	0.3939527786766542	0.4470343359484616	0.3387837367371619	0.48605274488141503	0.6478000821688686	0.35902815374122	0.48792461903569145	0.9021944062297339	0.34826281341663307	0.4160908741900659	1.1077878036832463	0.2689512728905781	0.3499237432855065	1.1865202312195884	0.2879379493699326	0.3661795968326871	1.253512477988249	0.34115943143965305	0.43757316662976775	1.2914832400344767	0.014505411049434636	0.4793301611060641	0.6368404886683166	-0.008538215301665463	0.47080177651114746	0.8916902994516341	-0.007425087362926791	0.43437694603059257	1.1242881054959117	0.058806894523342285	0.37699022030126067	1.2020059139663697	0.04190430063705057	0.3915132434809561	1.2259939347806208	0.0026166682761867397	0.4385556072263151	1.2489414487291677
225	3.8135593220338984	0.2709620851919826	0.43070312856258697	1.0775242922038266	0.2795822681713663	0.5064154367906193	1.5362982365603834	0.24566767944112025	0.5591592837808108	1.9582924309635703	0.2147364519382961	0.32371198429613773	1.9230252571128128	0.28265987245527546	0.3603130568104164	1.9435574021826398	0.2353428962063531	0.6380296988305515	2.026986467655326	0.06343907491615035	0.4881269687950033	1.1037592104029126	0.05653152623829181	0.5396539255915106	1.5586420938262155	0.06565541910330686	0.5457397960556484	1.9605921733954483	0.07401686970471602	0.3360549235981016	1.9215107593183223	0.027680157172516137	0.3815284698192234	1.9460560893332053	0.08477669432449729	0.5702923872488738	2.0032805528528193	0.17624334013903217	0.49094723348584407	0.5671763147991301	0.1642313887657765	0.4409382333545719	0.3256591558134564	0.1637541692800521	0.3956772125902281	0.44723203088244634	0.33837169938468936	0.48545737410230244	0.6438558908991964	0.3619265796833394	0.4742155350603108	0.8980308621798843	0.35144888983860817	0.4025250433096966	1.1025031015002709	0.2678856198061038	0.3489914087847746	1.1824133494217828	0.28792610245071104	0.36613525922124557	1.253353155157626	0.3410438942234646	0.4373093076540649	1.2913144603270745	0.014513083220327868	0.47936683243731915	0.6368463128447679	-0.011266915190061025	0.46012009032648526	0.8884171266971261	-0.0075683005582546856	0.4342261112459992	1.1243337504206028	0.0588278940071541	0.37685985525093385	1.2019450477779952	0.0419593920567931	0.39144636819722506	1.2259827732662023	0.002614443163593001	0.43849705342521644	1.2490250995736274
226	3.830508474576271	0.2696944772218312	0.4301914115122707	1.076822132613991	0.2841816397534649	0.5176610269428773	1.5420217423216802	0.245572465648632	0.5591076241495387	1.9581478108490111	0.2147769549372499	0.32365015102957184	1.92285890127236	0.2826650540279228	0.3602873386068506	1.9434795884008111	0.23495883998380504	0.6374882933720779	2.0265250267474513	0.06039207390069301	0.4767170785703518	1.0994323358362716	0.05653293781174089	0.5394504879669034	1.5585600993723405	0.06563849631269965	0.5457414780215952	1.960468618844332	0.0740406233865241	0.335945522281177	1.9213926093300602	0.03235760741330227	0.3679721392254224	1.9364984911137773	0.08479489355910955	0.5702508139341387	2.0032661249946653	0.1725262414174808	0.5040368395132272	0.5694843682580638	0.1643073107645505	0.4409522179144696	0.3256749908594257	0.16388533958863047	0.3956520506568064	0.4472224653654656	0.33838634692850816	0.48549014327635037	0.6438588273683978	0.36193717583092666	0.4742215282909267	0.8980280737767963	0.3494406517403752	0.416293542351995	1.1086193318544284	0.2697704267793565	0.35031463836860677	1.186375933155316	0.29461104910809194	0.35582499118906713	1.2489014470023807	0.34065486356140917	0.4387114999767912	1.288556421473604	0.01450589771622007	0.47936242312083216	0.6368298296259288	-0.011416208379551405	0.460449826840296	0.8887541192461914	-0.003586375384657995	0.4221490119930787	1.1235287223548998	0.05938389300974356	0.3778814075367361	1.2064323664710659	0.041894874709492914	0.39169414630909144	1.2261867962756916	0.002227327000139654	0.4463182326276078	1.252473656669962
227	3.847457627118644	0.2696875031076598	0.4302974490905377	1.076847528871436	0.27963333069955737	0.5063584886803547	1.5361007671989744	0.24570582431033908	0.5591811930920436	1.9582986357290593	0.2148497089156314	0.3237105400536772	1.9228459248781222	0.2827750023769623	0.3603145851873364	1.9434288035554617	0.23033218222885204	0.6244175226928174	2.0178698250153206	0.05601706018684806	0.4901408661914767	1.1043297499478102	0.05648954708509094	0.539422492024516	1.558543657967877	0.06565635279932432	0.545424414889459	1.9605895024111646	0.07460426530835597	0.3366705951977675	1.9261805641069525	0.036002552328947675	0.3543523921985497	1.9307485754343028	0.0847766838831787	0.5701252148619482	2.003298614491082	0.1724422453829694	0.5040985448719805	0.5694713959316351	0.1642776155970204	0.4405366121226523	0.32859128820083944	0.16384719421744334	0.39562133874831756	0.4472320561356336	0.3384014702999883	0.4855428252524252	0.6438531451585521	0.3590136429653145	0.4877767889485679	0.9021130204075789	0.3526482331669684	0.4030012636168403	1.1034194525439256	0.27303185458425855	0.3370252370154833	1.1731582380696965	0.291684386417821	0.3552956790208875	1.2411891489401234	0.3372518851318822	0.4513869881926374	1.2939826337048774	0.014481368615517454	0.4794030801857737	0.6368299021103455	-0.011523337872080592	0.46035232502564066	0.8887421697135103	-0.003652471040566113	0.4217249311780749	1.1233587722012317	0.059438382744467444	0.37830470766356183	1.2066995075819207	0.037477699297816726	0.40417239232187324	1.231613720043027	-0.0010501525331836025	0.4357504318464248	1.2480779208869854
228	3.864406779661017	0.2696636727188083	0.4309005292414684	1.0771175784620028	0.2794129449115997	0.5063294168581413	1.535830244466174	0.24058295337023378	0.5566727606930153	1.9570171116898465	0.21494866273169683	0.3246582673866829	1.9228080776519563	0.2828622624350037	0.3610735585875742	1.9433123396443883	0.22994687029613287	0.633848298634239	2.0346780930185835	0.05900870598812651	0.5027968830166326	1.1097273122341187	0.06066300221819494	0.5418340485346756	1.559628429174548	0.06550579595035495	0.5456847174139564	1.9602630437845745	0.06958605940651272	0.3342644844030413	1.9247452684073385	0.02768867795711158	0.3816969021406667	1.9460779061990248	0.08487346587046024	0.5704647829230758	2.0025624113895657	0.17259924442215646	0.5041720017717601	0.5696786482357051	0.16407995283892696	0.44081585698848663	0.325549769237724	0.1636858223928067	0.3953438107350599	0.4436564962713975	0.33888896459056744	0.4861489451153316	0.6478632153490211	0.36618977823040877	0.4760070392158626	0.898704313997164	0.35698282200697	0.40404131391273385	1.1037931452063954	0.26974041188868636	0.34996622060868743	1.1828470950167143	0.28828516759876643	0.3676954275735667	1.246781387557908	0.3371324092314874	0.4502195901557045	1.2968377382218401	0.014485767859947082	0.4794698755663831	0.63679944875609	-0.011996901384771622	0.45992765280872383	0.8920474939558235	-0.003740850152572994	0.4209239468651877	1.1230800493306152	0.05895991276152609	0.378924906617433	1.1991553209310144	0.037462480372004996	0.40455014647304555	1.2317044234017396	-0.0011864235748879702	0.43593141734306495	1.2484318371329768
229	3.8813559322033897	0.2698887895922599	0.4295548417047814	1.0804799422332694	0.27920726554236414	0.5074975342841819	1.5324957307582274	0.24042902758954088	0.5562618342689306	1.9567636053002975	0.21483961132468782	0.3243396222191634	1.9228447581791506	0.2790977341884507	0.37525883524180986	1.9534734865821495	0.22494611704711173	0.6197129922274416	2.0254692542887685	0.05607410617097548	0.4908909737760263	1.10528326764033	0.06073598696595765	0.5416026342928918	1.5593073246084987	0.06095126112764307	0.5425943141360413	1.9584312706532812	0.06898186959460871	0.33259601741543904	1.9193446628728115	0.027737237249247065	0.3813876857515159	1.945931137858381	0.08479233224195665	0.5701978813844435	2.002797144486536	0.17253586810476934	0.5042692904750821	0.5695563052036423	0.16404999941687481	0.4409255843050919	0.32556555024360334	0.16368824677175953	0.3953599430955366	0.44362789966309174	0.3388844068115855	0.4862108969364909	0.6478873285947412	0.3662747900468482	0.4759479550536848	0.8986956318642577	0.3526187751007272	0.4029076227980492	1.1036515726320015	0.2723773515552438	0.3378881580564711	1.1786673744749632	0.28826306379763894	0.3675902467539977	1.2468796090498186	0.337467520848184	0.45005807641286405	1.296811528763264	0.01447132912916243	0.4794447259044769	0.6368272370422227	-0.011354725972072233	0.45984786654268384	0.8885390973963316	-0.007054100461541089	0.40998582179203	1.1187729830748656	0.059009928913625345	0.3788650846207467	1.1991387748033049	0.037493428192750096	0.4043487534123977	1.2315879675035215	-0.0012609354505691446	0.435508456959598	1.2482406513303959
